{
  "accessors": [
    {
      "bufferView": 2,
      "componentType": 5126,
      "count": 65532,
      "max": [
        22.787757873535156,
        336.4736633300781,
        22.78986358642578
      ],
      "min": [
        -371.3167419433594,
        -18.858003616333008,
        -739.4876708984375
      ],
      "type": "VEC3"
    },
    {
      "bufferView": 2,
      "byteOffset": 786384,
      "componentType": 5126,
      "count": 65532,
      "max": [
        1.0,
        0.994490385055542,
        1.0
      ],
      "min": [
        -1.0,
        -0.9046340584754944,
        -1.0
      ],
      "type": "VEC3"
    },
    {
      "bufferView": 3,
      "componentType": 5126,
      "count": 65532,
      "max": [
        1.0,
        0.9474494457244873,
        1.0,
        1.0
      ],
      "min": [
        -1.0,
        -0.9474494457244873,
        -1.0,
        1.0
      ],
      "type": "VEC4"
    },
    {
      "bufferView": 1,
      "componentType": 5126,
      "count": 65532,
      "max": [
        0.791499674320221,
        0.9689925909042358
      ],
      "min": [
        0.3383292555809021,
        0.5980661511421204
      ],
      "type": "VEC2"
    },
    {
      "bufferView": 0,
      "componentType": 5125,
      "count": 365964,
      "type": "SCALAR"
    },
    {
      "bufferView": 2,
      "byteOffset": 1572768,
      "componentType": 5126,
      "count": 65532,
      "max": [
        22.787757873535156,
        336.69879150390625,
        22.328277587890625
      ],
      "min": [
        -370.0826110839844,
        -18.858003616333008,
        -739.4876708984375
      ],
      "type": "VEC3"
    },
    {
      "bufferView": 2,
      "byteOffset": 2359152,
      "componentType": 5126,
      "count": 65532,
      "max": [
        1.0,
        1.0,
        1.0
      ],
      "min": [
        -1.0,
        -0.9046340584754944,
        -1.0
      ],
      "type": "VEC3"
    },
    {
      "bufferView": 3,
      "byteOffset": 1048512,
      "componentType": 5126,
      "count": 65532,
      "max": [
        1.0,
        0.9474495053291321,
        1.0,
        1.0
      ],
      "min": [
        -1.0,
        -0.9474495053291321,
        -1.0,
        1.0
      ],
      "type": "VEC4"
    },
    {
      "bufferView": 1,
      "byteOffset": 524256,
      "componentType": 5126,
      "count": 65532,
      "max": [
        0.7717419862747192,
        0.9689925909042358
      ],
      "min": [
        0.3382987976074219,
        0.5980661511421204
      ],
      "type": "VEC2"
    },
    {
      "bufferView": 0,
      "byteOffset": 1463856,
      "componentType": 5125,
      "count": 368712,
      "type": "SCALAR"
    },
    {
      "bufferView": 2,
      "byteOffset": 3145536,
      "componentType": 5126,
      "count": 15171,
      "max": [
        -326.2007141113281,
        336.467529296875,
        -694.3695068359375
      ],
      "min": [
        -370.8572692871094,
        33.3997917175293,
        -739.0260620117188
      ],
      "type": "VEC3"
    },
    {
      "bufferView": 2,
      "byteOffset": 3327588,
      "componentType": 5126,
      "count": 15171,
      "max": [
        1.0,
        0.9942413568496704,
        1.0
      ],
      "min": [
        -1.0,
        -0.9046340584754944,
        -1.0
      ],
      "type": "VEC3"
    },
    {
      "bufferView": 3,
      "byteOffset": 2097024,
      "componentType": 5126,
      "count": 15171,
      "max": [
        1.0,
        0.9331533312797546,
        1.0,
        1.0
      ],
      "min": [
        -1.0,
        -0.9331523776054382,
        -1.0,
        1.0
      ],
      "type": "VEC4"
    },
    {
      "bufferView": 1,
      "byteOffset": 1048512,
      "componentType": 5126,
      "count": 15171,
      "max": [
        0.6772332787513733,
        0.9348534941673279
      ],
      "min": [
        0.5660744905471802,
        0.6008845567703247
      ],
      "type": "VEC2"
    },
    {
      "bufferView": 0,
      "byteOffset": 2938704,
      "componentType": 5125,
      "count": 81708,
      "type": "SCALAR"
    },
    {
      "bufferView": 2,
      "byteOffset": 3509640,
      "componentType": 5126,
      "count": 886,
      "max": [
        154.2283935546875,
        29.038246154785156,
        8.042290687561035
      ],
      "min": [
        -154.2283935546875,
        -20.80206871032715,
        -724.7401123046875
      ],
      "type": "VEC3"
    },
    {
      "bufferView": 2,
      "byteOffset": 3520272,
      "componentType": 5126,
      "count": 886,
      "max": [
        0.714712381362915,
        0.028156645596027374,
        1.0
      ],
      "min": [
        -0.7146899700164795,
        -1.0,
        -1.0
      ],
      "type": "VEC3"
    },
    {
      "bufferView": 3,
      "byteOffset": 2339760,
      "componentType": 5126,
      "count": 886,
      "max": [
        0.8168292045593262,
        0.999999463558197,
        0.37881192564964294,
        1.0
      ],
      "min": [
        -0.8168007731437683,
        -0.999999463558197,
        -1.0,
        -1.0
      ],
      "type": "VEC4"
    },
    {
      "bufferView": 1,
      "byteOffset": 1169880,
      "componentType": 5126,
      "count": 886,
      "max": [
        0.3214946687221527,
        0.994463324546814
      ],
      "min": [
        0.16602875292301178,
        0.7919215559959412
      ],
      "type": "VEC2"
    },
    {
      "bufferView": 0,
      "byteOffset": 3265536,
      "componentType": 5125,
      "count": 3480,
      "type": "SCALAR"
    },
    {
      "bufferView": 2,
      "byteOffset": 3530904,
      "componentType": 5126,
      "count": 1646,
      "max": [
        154.2283935546875,
        20.80206871032715,
        8.042290687561035
      ],
      "min": [
        -154.2283935546875,
        -20.80206871032715,
        -724.7401123046875
      ],
      "type": "VEC3"
    },
    {
      "bufferView": 2,
      "byteOffset": 3550656,
      "componentType": 5126,
      "count": 1646,
      "max": [
        0.7254481315612793,
        1.0,
        1.0
      ],
      "min": [
        -0.7248522043228149,
        -1.0,
        -1.0
      ],
      "type": "VEC3"
    },
    {
      "bufferView": 3,
      "byteOffset": 2353936,
      "componentType": 5126,
      "count": 1646,
      "max": [
        0.8449319005012512,
        1.0,
        1.0,
        1.0
      ],
      "min": [
        -0.8449483513832092,
        -1.0,
        -0.9999832510948181,
        -1.0
      ],
      "type": "VEC4"
    },
    {
      "bufferView": 1,
      "byteOffset": 1176968,
      "componentType": 5126,
      "count": 1646,
      "max": [
        0.3224107623100281,
        0.790672242641449
      ],
      "min": [
        0.1653163731098175,
        0.5874632000923157
      ],
      "type": "VEC2"
    },
    {
      "bufferView": 0,
      "byteOffset": 3279456,
      "componentType": 5125,
      "count": 6588,
      "type": "SCALAR"
    },
    {
      "bufferView": 2,
      "byteOffset": 3570408,
      "componentType": 5126,
      "count": 886,
      "max": [
        338.5233154296875,
        29.038246154785156,
        8.042290687561035
      ],
      "min": [
        -338.5909729003906,
        -20.80206871032715,
        -358.12554931640625
      ],
      "type": "VEC3"
    },
    {
      "bufferView": 2,
      "byteOffset": 3581040,
      "componentType": 5126,
      "count": 886,
      "max": [
        0.7146921157836914,
        0.02809014916419983,
        1.0
      ],
      "min": [
        -0.7146643400192261,
        -1.0,
        -1.0
      ],
      "type": "VEC3"
    },
    {
      "bufferView": 3,
      "byteOffset": 2380272,
      "componentType": 5126,
      "count": 886,
      "max": [
        0.8155086636543274,
        0.9999988675117493,
        1.0,
        1.0
      ],
      "min": [
        -0.815439760684967,
        -0.999998927116394,
        -0.37869128584861755,
        -1.0
      ],
      "type": "VEC4"
    },
    {
      "bufferView": 1,
      "byteOffset": 1190136,
      "componentType": 5126,
      "count": 886,
      "max": [
        0.16121505200862885,
        0.9170185923576355
      ],
      "min": [
        0.008399605751037598,
        0.4737359881401062
      ],
      "type": "VEC2"
    },
    {
      "bufferView": 0,
      "byteOffset": 3305808,
      "componentType": 5125,
      "count": 3480,
      "type": "SCALAR"
    },
    {
      "bufferView": 2,
      "byteOffset": 3591672,
      "componentType": 5126,
      "count": 56,
      "max": [
        45.027896881103516,
        6.882203102111816,
        356.4306335449219
      ],
      "min": [
        -45.027896881103516,
        -6.882203102111816,
        -356.4306335449219
      ],
      "type": "VEC3"
    },
    {
      "bufferView": 2,
      "byteOffset": 3592344,
      "componentType": 5126,
      "count": 56,
      "max": [
        1.0,
        1.0,
        -0.0
      ],
      "min": [
        -1.0,
        -1.0,
        -0.0
      ],
      "type": "VEC3"
    },
    {
      "bufferView": 3,
      "byteOffset": 2394448,
      "componentType": 5126,
      "count": 56,
      "max": [
        1.0,
        1.0,
        0.0,
        1.0
      ],
      "min": [
        -1.0,
        -1.0,
        0.0,
        1.0
      ],
      "type": "VEC4"
    },
    {
      "bufferView": 1,
      "byteOffset": 1197224,
      "componentType": 5126,
      "count": 56,
      "max": [
        0.16188129782676697,
        0.47177940607070923
      ],
      "min": [
        0.028458410874009132,
        0.006060456391423941
      ],
      "type": "VEC2"
    },
    {
      "bufferView": 0,
      "byteOffset": 3319728,
      "componentType": 5125,
      "count": 120,
      "type": "SCALAR"
    },
    {
      "bufferView": 2,
      "byteOffset": 3593016,
      "componentType": 5126,
      "count": 636,
      "max": [
        240.31822204589844,
        9.910561561584473,
        526.3824462890625
      ],
      "min": [
        -240.31822204589844,
        -9.910561561584473,
        -526.3824462890625
      ],
      "type": "VEC3"
    },
    {
      "bufferView": 2,
      "byteOffset": 3600648,
      "componentType": 5126,
      "count": 636,
      "max": [
        1.0,
        1.0,
        1.0
      ],
      "min": [
        -1.0,
        -1.0,
        -1.0
      ],
      "type": "VEC3"
    },
    {
      "bufferView": 3,
      "byteOffset": 2395344,
      "componentType": 5126,
      "count": 636,
      "max": [
        1.0,
        1.0,
        1.0,
        1.0
      ],
      "min": [
        -1.0,
        -1.0,
        -1.0,
        1.0
      ],
      "type": "VEC4"
    },
    {
      "bufferView": 1,
      "byteOffset": 1197672,
      "componentType": 5126,
      "count": 636,
      "max": [
        0.9936419129371643,
        0.6896278858184814
      ],
      "min": [
        0.16407300531864166,
        0.005365729331970215
      ],
      "type": "VEC2"
    },
    {
      "bufferView": 0,
      "byteOffset": 3320208,
      "componentType": 5125,
      "count": 2868,
      "type": "SCALAR"
    }
  ],
  "asset": {
    "extras": {
      "author": "eucocker (https://sketchfab.com/eucocker)",
      "license": "CC-BY-4.0 (http://creativecommons.org/licenses/by/4.0/)",
      "source": "https://sketchfab.com/3d-models/table-5-2983f936a55a4574b7ca5be8a0bfd021",
      "title": "Table 5"
    },
    "generator": "Sketchfab-12.68.0",
    "version": "2.0"
  },
  "bufferViews": [
    {
      "buffer": 0,
      "byteLength": 3331680,
      "name": "floatBufferViews",
      "target": 34963
    },
    {
      "buffer": 0,
      "byteLength": 1202760,
      "byteOffset": 3331680,
      "byteStride": 8,
      "name": "floatBufferViews",
      "target": 34962
    },
    {
      "buffer": 0,
      "byteLength": 3608280,
      "byteOffset": 4534440,
      "byteStride": 12,
      "name": "floatBufferViews",
      "target": 34962
    },
    {
      "buffer": 0,
      "byteLength": 2405520,
      "byteOffset": 8142720,
      "byteStride": 16,
      "name": "floatBufferViews",
      "target": 34962
    }
  ],
  "buffers": [
    {
      "byteLength": 10548240,
      "uri": "table.bin"
    }
  ],
  "images": [
    {
      "uri": "textures/Scene_-_Root_baseColor.png"
    },
    {
      "uri": "textures/Scene_-_Root_metallicRoughness.png"
    },
    {
      "uri": "textures/Scene_-_Root_normal.png"
    }
  ],
  "materials": [
    {
      "doubleSided": true,
      "name": "Scene_-_Root",
      "normalTexture": {
        "index": 2
      },
      "occlusionTexture": {
        "index": 1
      },
      "pbrMetallicRoughness": {
        "baseColorTexture": {
          "index": 0
        },
        "metallicFactor": 0.0,
        "metallicRoughnessTexture": {
          "index": 1
        }
      }
    }
  ],
  "meshes": [
    {
      "name": "Cube_2__0",
      "primitives": [
        {
          "attributes": {
            "NORMAL": 1,
            "POSITION": 0,
            "TANGENT": 2,
            "TEXCOORD_0": 3
          },
          "indices": 4,
          "material": 0,
          "mode": 4
        }
      ]
    },
    {
      "name": "Cube_2__0",
      "primitives": [
        {
          "attributes": {
            "NORMAL": 6,
            "POSITION": 5,
            "TANGENT": 7,
            "TEXCOORD_0": 8
          },
          "indices": 9,
          "material": 0,
          "mode": 4
        }
      ]
    },
    {
      "name": "Cube_2__0",
      "primitives": [
        {
          "attributes": {
            "NORMAL": 11,
            "POSITION": 10,
            "TANGENT": 12,
            "TEXCOORD_0": 13
          },
          "indices": 14,
          "material": 0,
          "mode": 4
        }
      ]
    },
    {
      "name": "Cube_1_2__0",
      "primitives": [
        {
          "attributes": {
            "NORMAL": 16,
            "POSITION": 15,
            "TANGENT": 17,
            "TEXCOORD_0": 18
          },
          "indices": 19,
          "material": 0,
          "mode": 4
        }
      ]
    },
    {
      "name": "Cube_2_2__0",
      "primitives": [
        {
          "attributes": {
            "NORMAL": 21,
            "POSITION": 20,
            "TANGENT": 22,
            "TEXCOORD_0": 23
          },
          "indices": 24,
          "material": 0,
          "mode": 4
        }
      ]
    },
    {
      "name": "Cube_1_3__0",
      "primitives": [
        {
          "attributes": {
            "NORMAL": 26,
            "POSITION": 25,
            "TANGENT": 27,
            "TEXCOORD_0": 28
          },
          "indices": 29,
          "material": 0,
          "mode": 4
        }
      ]
    },
    {
      "name": "Cube__0",
      "primitives": [
        {
          "attributes": {
            "NORMAL": 31,
            "POSITION": 30,
            "TANGENT": 32,
            "TEXCOORD_0": 33
          },
          "indices": 34,
          "material": 0,
          "mode": 4
        }
      ]
    },
    {
      "name": "Cube_1__0",
      "primitives": [
        {
          "attributes": {
            "NORMAL": 36,
            "POSITION": 35,
            "TANGENT": 37,
            "TEXCOORD_0": 38
          },
          "indices": 39,
          "material": 0,
          "mode": 4
        }
      ]
    }
  ],
  "nodes": [
    {
      "children": [
        1
      ],
      "matrix": [
        1.0,
        0.0,
        0.0,
        0.0,
        0.0,
        2.220446049250313e-16,
        -1.0,
        0.0,
        0.0,
        1.0,
        2.220446049250313e-16,
        0.0,
        0.0,
        0.0,
        0.0,
        1.0
      ],
      "name": "Sketchfab_model"
    },
    {
      "children": [
        2
      ],
      "matrix": [
        0.009999999776482582,
        0.0,
        0.0,
        0.0,
        0.0,
        0.0,
        0.009999999776482582,
        0.0,
        0.0,
        -0.009999999776482582,
        0.0,
        0.0,
        0.0,
        0.0,
        0.0,
        1.0
      ],
      "name": "551b894641694c319d2cab2e086e2b4a.fbx"
    },
    {
      "children": [
        3,
        14,
        17,
        19
      ],
      "name": "RootNode"
    },
    {
      "children": [
        4
      ],
      "name": "Symmetry_2"
    },
    {
      "children": [
        5,
        10,
        12
      ],
      "matrix": [
        1.0,
        0.0,
        0.0,
        0.0,
        0.0,
        1.0,
        0.0,
        0.0,
        0.0,
        0.0,
        1.0,
        0.0,
        0.0,
        144.3971405029297,
        358.3489074707031,
        1.0
      ],
      "name": "Null"
    },
    {
      "children": [
        6
      ],
      "matrix": [
        1.0,
        0.0,
        0.0,
        0.0,
        0.0,
        1.0,
        0.0,
        0.0,
        0.0,
        0.0,
        1.0,
        0.0,
        0.0,
        -144.3971405029297,
        -358.3489074707031,
        1.0
      ],
      "name": "Symmetry_1"
    },
    {
      "children": [
        7,
        8,
        9
      ],
      "matrix": [
        -1.0,
        1.2246467991473532e-16,
        0.0,
        0.0,
        -1.2246467991473532e-16,
        -1.0,
        0.0,
        0.0,
        0.0,
        0.0,
        1.0,
        0.0,
        -174.26449584960938,
        373.76544189453125,
        358.3489074707031,
        1.0
      ],
      "name": "Cube_2"
    },
    {
      "mesh": 0,
      "name": "Cube_2__0"
    },
    {
      "mesh": 1,
      "name": "Cube_2__0"
    },
    {
      "mesh": 2,
      "name": "Cube_2__0"
    },
    {
      "children": [
        11
      ],
      "matrix": [
        1.0,
        0.0,
        0.0,
        0.0,
        0.0,
        1.0,
        0.0,
        0.0,
        0.0,
        0.0,
        1.0,
        0.0,
        0.0,
        221.6800537109375,
        0.0,
        1.0
      ],
      "name": "Cube_1_2"
    },
    {
      "mesh": 3,
      "name": "Cube_1_2__0"
    },
    {
      "children": [
        13
      ],
      "matrix": [
        1.0,
        0.0,
        0.0,
        0.0,
        0.0,
        1.0,
        0.0,
        0.0,
        0.0,
        0.0,
        1.0,
        0.0,
        0.0,
        -41.043739318847656,
        0.0,
        1.0
      ],
      "name": "Cube_2_2"
    },
    {
      "mesh": 4,
      "name": "Cube_2_2__0"
    },
    {
      "children": [
        15
      ],
      "name": "Symmetry"
    },
    {
      "children": [
        16
      ],
      "matrix": [
        2.220446049250313e-16,
        0.0,
        -1.0,
        0.0,
        0.0,
        1.0,
        0.0,
        0.0,
        1.0,
        0.0,
        2.220446049250313e-16,
        0.0,
        175.0416259765625,
        366.07720947265625,
        1.0718208377856041e-14,
        1.0
      ],
      "name": "Cube_1_3"
    },
    {
      "mesh": 5,
      "name": "Cube_1_3__0"
    },
    {
      "children": [
        18
      ],
      "matrix": [
        1.0,
        0.0,
        0.0,
        0.0,
        0.0,
        1.0,
        0.0,
        0.0,
        0.0,
        0.0,
        1.0,
        0.0,
        0.0,
        102.97720336914063,
        0.0,
        1.0
      ],
      "name": "Cube"
    },
    {
      "mesh": 6,
      "name": "Cube__0"
    },
    {
      "children": [
        20
      ],
      "matrix": [
        1.0,
        0.0,
        0.0,
        0.0,
        0.0,
        1.0,
        0.0,
        0.0,
        0.0,
        0.0,
        1.0,
        0.0,
        0.0,
        403.9433288574219,
        0.0,
        1.0
      ],
      "name": "Cube_1"
    },
    {
      "mesh": 7,
      "name": "Cube_1__0"
    }
  ],
  "samplers": [
    {
      "magFilter": 9729,
      "minFilter": 9987,
      "wrapS": 10497,
      "wrapT": 10497
    }
  ],
  "scene": 0,
  "scenes": [
    {
      "name": "Sketchfab_Scene",
      "nodes": [
        0
      ]
    }
  ],
  "textures": [
    {
      "sampler": 0,
      "source": 0
    },
    {
      "sampler": 0,
      "source": 1
    },
    {
      "sampler": 0,
      "source": 2
    }
  ]
}
